<svg width="379" height="182" viewBox="0 0 379 182" fill="none" xmlns="http://www.w3.org/2000/svg">
<g filter="url(#filter0_i)">
<path d="M123.033 116.953L114.225 117.153L112.423 160.396L67.1787 164.399L69.5811 118.154L16.1289 119.355L30.9434 31.4697H68.7803L57.7695 92.7295L70.9824 92.3291L74.7861 16.4551H118.229L115.226 90.7275L123.033 90.3271V116.953ZM253.46 93.3301C253.46 99.2025 252.793 105.042 251.458 110.847C250.191 116.653 248.322 122.225 245.853 127.563C243.384 132.902 240.348 137.874 236.744 142.478C233.207 147.083 229.137 151.086 224.532 154.49C219.928 157.893 214.856 160.562 209.317 162.498C203.845 164.433 197.94 165.4 191.6 165.4C185.194 165.4 179.221 164.433 173.683 162.498C168.144 160.562 163.072 157.893 158.468 154.49C153.93 151.086 149.859 147.083 146.256 142.478C142.652 137.874 139.616 132.902 137.147 127.563C134.678 122.225 132.776 116.653 131.441 110.847C130.174 104.975 129.54 99.1357 129.54 93.3301C129.54 87.5244 130.174 81.6854 131.441 75.813C132.776 69.9406 134.678 64.3351 137.147 58.9966C139.616 53.658 142.652 48.6865 146.256 44.082C149.859 39.4108 153.93 35.3735 158.468 31.9702C163.072 28.5669 168.144 25.8976 173.683 23.9624C179.288 22.0272 185.261 21.0596 191.6 21.0596C197.94 21.0596 203.845 22.0272 209.317 23.9624C214.856 25.8976 219.928 28.5669 224.532 31.9702C229.137 35.3735 233.207 39.4108 236.744 44.082C240.348 48.6865 243.384 53.658 245.853 58.9966C248.322 64.3351 250.191 69.9406 251.458 75.813C252.793 81.6854 253.46 87.5244 253.46 93.3301ZM211.219 96.333C211.219 93.3968 210.819 90.127 210.018 86.5234C209.217 82.9199 207.983 79.55 206.314 76.4136C204.646 73.2772 202.511 70.6413 199.908 68.5059C197.306 66.3704 194.203 65.3027 190.599 65.3027C186.929 65.3027 183.792 66.3704 181.19 68.5059C178.587 70.6413 176.419 73.2772 174.684 76.4136C173.015 79.55 171.781 82.9199 170.98 86.5234C170.179 90.127 169.779 93.3968 169.779 96.333C169.779 99.2692 170.179 102.539 170.98 106.143C171.781 109.746 173.015 113.116 174.684 116.252C176.419 119.389 178.587 122.025 181.19 124.16C183.792 126.296 186.929 127.363 190.599 127.363C194.203 127.363 197.306 126.296 199.908 124.16C202.511 122.025 204.646 119.389 206.314 116.252C207.983 113.116 209.217 109.746 210.018 106.143C210.819 102.539 211.219 99.2692 211.219 96.333ZM363.268 116.953L354.459 117.153L352.657 160.396L307.413 164.399L309.815 118.154L256.363 119.355L271.178 31.4697H309.015L298.004 92.7295L311.217 92.3291L315.021 16.4551H358.463L355.46 90.7275L363.268 90.3271V116.953Z" fill="url(#paint0_linear)"/>
</g>
<path d="M123.033 116.953L123.388 132.569C131.874 132.376 138.653 125.441 138.653 116.953H123.033ZM114.225 117.153L113.87 101.538C105.635 101.725 98.9612 108.274 98.6183 116.503L114.225 117.153ZM112.423 160.396L113.8 175.955C121.614 175.263 127.703 168.883 128.029 161.046L112.423 160.396ZM67.1787 164.399L51.5799 163.589C51.3452 168.106 53.0803 172.503 56.3365 175.643C59.5926 178.783 64.0499 180.357 68.5556 179.958L67.1787 164.399ZM69.5811 118.154L85.1799 118.965C85.4052 114.626 83.8136 110.39 80.7873 107.273C77.761 104.156 73.5733 102.441 69.2301 102.538L69.5811 118.154ZM16.1289 119.355L0.726363 116.759C-0.0478745 121.352 1.26815 126.051 4.31539 129.574C7.36263 133.097 11.8231 135.076 16.4798 134.971L16.1289 119.355ZM30.9434 31.4697V15.8499C23.3187 15.8499 16.8082 21.3548 15.5408 28.8734L30.9434 31.4697ZM68.7803 31.4697L84.1538 34.2329C84.9721 29.6798 83.7301 24.998 80.7623 21.4493C77.7946 17.9005 73.4064 15.8499 68.7803 15.8499V31.4697ZM57.7695 92.7295L42.396 89.9663C41.563 94.601 42.8653 99.3642 45.9406 102.93C49.0159 106.496 53.5358 108.485 58.2426 108.342L57.7695 92.7295ZM70.9824 92.3291L71.4555 107.942C79.592 107.695 86.1751 101.241 86.5827 93.1112L70.9824 92.3291ZM74.7861 16.4551V0.835243C66.4635 0.835243 59.6026 7.36083 59.1859 15.673L74.7861 16.4551ZM118.229 16.4551L133.836 17.0861C134.007 12.8375 132.44 8.70241 129.494 5.63558C126.549 2.56876 122.481 0.835243 118.229 0.835243V16.4551ZM115.226 90.7275L99.6185 90.0965C99.4411 94.4842 101.119 98.7438 104.241 101.832C107.362 104.92 111.64 106.552 116.026 106.327L115.226 90.7275ZM123.033 90.3271H138.653C138.653 86.0457 136.896 81.9519 133.792 79.003C130.688 76.054 126.509 74.5085 122.233 74.7278L123.033 90.3271ZM122.678 101.337L113.87 101.538L114.58 132.769L123.388 132.569L122.678 101.337ZM98.6183 116.503L96.8166 159.745L128.029 161.046L129.831 117.804L98.6183 116.503ZM111.046 144.836L65.8018 148.84L68.5556 179.958L113.8 175.955L111.046 144.836ZM82.7775 165.21L85.1799 118.965L53.9823 117.344L51.5799 163.589L82.7775 165.21ZM69.2301 102.538L15.778 103.74L16.4798 134.971L69.932 133.77L69.2301 102.538ZM31.5314 121.952L46.3459 34.0661L15.5408 28.8734L0.726363 116.759L31.5314 121.952ZM30.9434 47.0896H68.7803V15.8499H30.9434V47.0896ZM53.4068 28.7065L42.396 89.9663L73.143 95.4927L84.1538 34.2329L53.4068 28.7065ZM58.2426 108.342L71.4555 107.942L70.5093 76.7164L57.2964 77.1168L58.2426 108.342ZM86.5827 93.1112L90.3864 17.2371L59.1859 15.673L55.3822 91.547L86.5827 93.1112ZM74.7861 32.0749H118.229V0.835243H74.7861V32.0749ZM102.621 15.8241L99.6185 90.0965L130.833 91.3586L133.836 17.0861L102.621 15.8241ZM116.026 106.327L123.833 105.926L122.233 74.7278L114.426 75.1282L116.026 106.327ZM107.413 90.3271V116.953H138.653V90.3271H107.413ZM251.458 110.847L236.236 107.348C236.223 107.403 236.21 107.459 236.198 107.514L251.458 110.847ZM236.744 142.478L224.443 132.851C224.414 132.889 224.386 132.926 224.357 132.963L236.744 142.478ZM209.317 162.498L204.165 147.752C204.147 147.758 204.128 147.765 204.109 147.772L209.317 162.498ZM173.683 162.498L168.531 177.243L173.683 162.498ZM158.468 154.49L149.096 166.986C149.125 167.007 149.154 167.029 149.183 167.051L158.468 154.49ZM131.441 110.847L116.173 114.144C116.188 114.211 116.203 114.279 116.219 114.347L131.441 110.847ZM131.441 75.813L116.21 72.3513C116.197 72.4063 116.185 72.4614 116.173 72.5165L131.441 75.813ZM137.147 58.9966L122.97 52.4397L137.147 58.9966ZM146.256 44.082L158.557 53.7087C158.579 53.6801 158.601 53.6514 158.623 53.6227L146.256 44.082ZM158.468 31.9702L149.183 19.4091C149.154 19.4308 149.125 19.4525 149.096 19.4743L158.468 31.9702ZM173.683 23.9624L168.585 9.1977C168.567 9.20401 168.549 9.21035 168.531 9.21672L173.683 23.9624ZM209.317 23.9624L204.109 38.6884C204.128 38.695 204.147 38.7016 204.165 38.7081L209.317 23.9624ZM236.744 44.082L224.291 53.5108C224.341 53.5771 224.392 53.6431 224.443 53.7087L236.744 44.082ZM245.853 58.9966L260.03 52.4397L245.853 58.9966ZM251.458 75.813L236.19 79.1095C236.202 79.1646 236.215 79.2197 236.227 79.2747L251.458 75.813ZM174.684 76.4136L161.016 68.8526C160.974 68.9275 160.933 69.0027 160.893 69.0783L174.684 76.4136ZM174.684 116.252L160.893 123.588C160.933 123.663 160.974 123.739 161.016 123.813L174.684 116.252ZM206.314 116.252L220.105 123.588L206.314 116.252ZM237.841 93.3301C237.841 98.0078 237.31 102.673 236.236 107.348L266.681 114.347C268.276 107.41 269.08 100.397 269.08 93.3301H237.841ZM236.198 107.514C235.171 112.221 233.663 116.711 231.676 121.007L260.03 134.12C262.981 127.739 265.211 121.085 266.719 114.18L236.198 107.514ZM231.676 121.007C229.709 125.26 227.301 129.2 224.443 132.851L249.045 152.105C253.394 146.547 257.059 140.544 260.03 134.12L231.676 121.007ZM224.357 132.963C221.695 136.429 218.665 139.403 215.248 141.929L233.817 167.051C239.609 162.77 244.72 157.736 249.131 151.993L224.357 132.963ZM215.248 141.929C211.935 144.378 208.262 146.321 204.165 147.752L214.469 177.243C221.45 174.804 227.921 171.408 233.817 167.051L215.248 141.929ZM204.109 147.772C200.457 149.063 196.329 149.781 191.6 149.781V181.02C199.55 181.02 207.233 179.802 214.525 177.224L204.109 147.772ZM191.6 149.781C186.787 149.781 182.572 149.058 178.835 147.752L168.531 177.243C175.871 179.808 183.6 181.02 191.6 181.02V149.781ZM178.835 147.752C174.738 146.321 171.065 144.378 167.752 141.929L149.183 167.051C155.079 171.408 161.55 174.804 168.531 177.243L178.835 147.752ZM167.84 141.994C164.434 139.439 161.34 136.408 158.557 132.851L133.955 152.105C138.378 157.757 143.427 162.734 149.096 166.986L167.84 141.994ZM158.557 132.851C155.699 129.2 153.291 125.26 151.324 121.007L122.97 134.12C125.941 140.544 129.606 146.547 133.955 152.105L158.557 132.851ZM151.324 121.007C149.314 116.661 147.76 112.114 146.664 107.348L116.219 114.347C117.792 121.191 120.042 127.789 122.97 134.12L151.324 121.007ZM146.709 107.551C145.667 102.724 145.159 97.9896 145.159 93.3301H113.92C113.92 100.282 114.68 107.226 116.173 114.144L146.709 107.551ZM145.159 93.3301C145.159 88.6705 145.667 83.9363 146.709 79.1095L116.173 72.5165C114.68 79.4344 113.92 86.3783 113.92 93.3301H145.159ZM146.673 79.2747C147.771 74.4426 149.325 69.8766 151.324 65.5534L122.97 52.4397C120.031 58.7937 117.781 65.4386 116.21 72.3513L146.673 79.2747ZM151.324 65.5534C153.291 61.3004 155.699 57.3599 158.557 53.7087L133.955 34.4554C129.606 40.0132 125.941 46.0157 122.97 52.4397L151.324 65.5534ZM158.623 53.6227C161.401 50.0222 164.474 46.9906 167.84 44.4661L149.096 19.4743C143.386 23.7565 138.318 28.7994 133.888 34.5414L158.623 53.6227ZM167.752 44.5313C171.065 42.0823 174.738 40.1394 178.835 38.7081L168.531 9.21672C161.55 11.6559 155.079 15.0515 149.183 19.4091L167.752 44.5313ZM178.78 38.7271C182.636 37.3959 186.875 36.6794 191.6 36.6794V5.43974C183.646 5.43974 175.94 6.65841 168.585 9.1977L178.78 38.7271ZM191.6 36.6794C196.329 36.6794 200.457 37.3969 204.109 38.6884L214.525 9.23637C207.233 6.65747 199.55 5.43974 191.6 5.43974V36.6794ZM204.165 38.7081C208.262 40.1394 211.935 42.0823 215.248 44.5313L233.817 19.4091C227.921 15.0515 221.45 11.6559 214.469 9.21672L204.165 38.7081ZM215.248 44.5313C218.624 47.0267 221.634 50.0017 224.291 53.5108L249.197 34.6533C244.78 28.8199 239.649 23.7204 233.817 19.4091L215.248 44.5313ZM224.443 53.7087C227.301 57.3599 229.709 61.3004 231.676 65.5534L260.03 52.4397C257.059 46.0157 253.394 40.0132 249.045 34.4554L224.443 53.7087ZM231.676 65.5534C233.652 69.8265 235.16 74.3366 236.19 79.1095L266.727 72.5165C265.221 65.5446 262.992 58.8438 260.03 52.4397L231.676 65.5534ZM236.227 79.2747C237.313 84.0536 237.841 88.7318 237.841 93.3301H269.08C269.08 86.317 268.273 79.3172 266.69 72.3513L236.227 79.2747ZM226.839 96.333C226.839 92.01 226.254 87.5807 225.266 83.135L194.77 89.9119C195.384 92.6732 195.599 94.7836 195.599 96.333H226.839ZM225.266 83.135C224.172 78.2102 222.46 73.5065 220.105 69.0783L192.524 83.7489C193.505 85.5935 194.263 87.6297 194.77 89.9119L225.266 83.135ZM220.105 69.0783C217.522 64.2233 214.1 59.9457 209.816 56.4306L190 80.5811C190.921 81.3369 191.77 82.3311 192.524 83.7489L220.105 69.0783ZM209.816 56.4306C204.216 51.8355 197.542 49.6829 190.599 49.6829V80.9226C190.84 80.9226 190.783 80.9548 190.547 80.8735C190.438 80.8359 190.324 80.7853 190.216 80.7247C190.109 80.6646 190.036 80.6107 190 80.5811L209.816 56.4306ZM190.599 49.6829C183.665 49.6829 176.936 51.7913 171.282 56.4306L191.098 80.5811C191.049 80.6213 190.967 80.6811 190.855 80.7437C190.742 80.8066 190.629 80.8556 190.528 80.89C190.31 80.9641 190.293 80.9226 190.599 80.9226V49.6829ZM171.282 56.4306C167.055 59.8988 163.645 64.1003 161.016 68.8526L188.351 83.9745C189.193 82.4541 190.12 81.3837 191.098 80.5811L171.282 56.4306ZM160.893 69.0783C158.538 73.5065 156.827 78.2102 155.732 83.135L186.228 89.9119C186.735 87.6297 187.493 85.5935 188.474 83.7489L160.893 69.0783ZM155.732 83.135C154.744 87.5807 154.159 92.01 154.159 96.333H185.399C185.399 94.7836 185.614 92.6732 186.228 89.9119L155.732 83.135ZM154.159 96.333C154.159 100.656 154.744 105.085 155.732 109.531L186.228 102.754C185.614 99.9928 185.399 97.8824 185.399 96.333H154.159ZM155.732 109.531C156.827 114.456 158.538 119.16 160.893 123.588L188.474 108.917C187.493 107.073 186.735 105.036 186.228 102.754L155.732 109.531ZM161.016 123.813C163.645 128.566 167.055 132.767 171.282 136.235L191.098 112.085C190.12 111.282 189.193 110.212 188.351 108.691L161.016 123.813ZM171.282 136.235C176.936 140.875 183.665 142.983 190.599 142.983V111.743C190.293 111.743 190.31 111.702 190.528 111.776C190.629 111.81 190.742 111.859 190.855 111.922C190.967 111.985 191.049 112.045 191.098 112.085L171.282 136.235ZM190.599 142.983C197.542 142.983 204.216 140.831 209.816 136.235L190 112.085C190.036 112.055 190.109 112.001 190.216 111.941C190.324 111.881 190.438 111.83 190.547 111.793C190.783 111.711 190.84 111.743 190.599 111.743V142.983ZM209.816 136.235C214.1 132.72 217.522 128.443 220.105 123.588L192.524 108.917C191.77 110.335 190.921 111.329 190 112.085L209.816 136.235ZM220.105 123.588C222.46 119.16 224.172 114.456 225.266 109.531L194.77 102.754C194.263 105.036 193.505 107.073 192.524 108.917L220.105 123.588ZM225.266 109.531C226.254 105.085 226.839 100.656 226.839 96.333H195.599C195.599 97.8824 195.384 99.9928 194.77 102.754L225.266 109.531ZM363.268 116.953L363.622 132.569C372.109 132.376 378.887 125.441 378.887 116.953H363.268ZM354.459 117.153L354.104 101.538C345.87 101.725 339.196 108.274 338.853 116.503L354.459 117.153ZM352.657 160.396L354.034 175.955C361.848 175.263 367.937 168.883 368.264 161.046L352.657 160.396ZM307.413 164.399L291.814 163.589C291.58 168.106 293.315 172.503 296.571 175.643C299.827 178.783 304.284 180.357 308.79 179.958L307.413 164.399ZM309.815 118.154L325.414 118.965C325.64 114.626 324.048 110.39 321.022 107.273C317.995 104.156 313.808 102.441 309.465 102.538L309.815 118.154ZM256.363 119.355L240.961 116.759C240.187 121.352 241.503 126.051 244.55 129.574C247.597 133.097 252.057 135.076 256.714 134.971L256.363 119.355ZM271.178 31.4697V15.8499C263.553 15.8499 257.043 21.3548 255.775 28.8734L271.178 31.4697ZM309.015 31.4697L324.388 34.2329C325.207 29.6798 323.964 24.998 320.997 21.4493C318.029 17.9005 313.641 15.8499 309.015 15.8499V31.4697ZM298.004 92.7295L282.63 89.9663C281.797 94.601 283.1 99.3642 286.175 102.93C289.25 106.496 293.77 108.485 298.477 108.342L298.004 92.7295ZM311.217 92.3291L311.69 107.942C319.826 107.695 326.409 101.241 326.817 93.1112L311.217 92.3291ZM315.021 16.4551V0.835243C306.698 0.835243 299.837 7.36083 299.42 15.673L315.021 16.4551ZM358.463 16.4551L374.07 17.0861C374.242 12.8375 372.674 8.70241 369.729 5.63558C366.783 2.56876 362.715 0.835243 358.463 0.835243V16.4551ZM355.46 90.7275L339.853 90.0965C339.675 94.4842 341.353 98.7438 344.475 101.832C347.597 104.92 351.874 106.552 356.26 106.327L355.46 90.7275ZM363.268 90.3271H378.887C378.887 86.0457 377.13 81.9519 374.026 79.003C370.922 76.054 366.743 74.5085 362.468 74.7278L363.268 90.3271ZM362.913 101.337L354.104 101.538L354.814 132.769L363.622 132.569L362.913 101.337ZM338.853 116.503L337.051 159.745L368.264 161.046L370.065 117.804L338.853 116.503ZM351.28 144.836L306.036 148.84L308.79 179.958L354.034 175.955L351.28 144.836ZM323.012 165.21L325.414 118.965L294.217 117.344L291.814 163.589L323.012 165.21ZM309.465 102.538L256.012 103.74L256.714 134.971L310.166 133.77L309.465 102.538ZM271.766 121.952L286.58 34.0661L255.775 28.8734L240.961 116.759L271.766 121.952ZM271.178 47.0896H309.015V15.8499H271.178V47.0896ZM293.641 28.7065L282.63 89.9663L313.377 95.4927L324.388 34.2329L293.641 28.7065ZM298.477 108.342L311.69 107.942L310.744 76.7164L297.531 77.1168L298.477 108.342ZM326.817 93.1112L330.621 17.2371L299.42 15.673L295.617 91.547L326.817 93.1112ZM315.021 32.0749H358.463V0.835243H315.021V32.0749ZM342.856 15.8241L339.853 90.0965L371.067 91.3586L374.07 17.0861L342.856 15.8241ZM356.26 106.327L364.068 105.926L362.468 74.7278L354.66 75.1282L356.26 106.327ZM347.648 90.3271V116.953H378.887V90.3271H347.648Z" fill="white"/>
<defs>
<filter id="filter0_i" x="0.509033" y="0.835266" width="386.188" height="191.119" filterUnits="userSpaceOnUse" color-interpolation-filters="sRGB">
<feFlood flood-opacity="0" result="BackgroundImageFix"/>
<feBlend mode="normal" in="SourceGraphic" in2="BackgroundImageFix" result="shape"/>
<feColorMatrix in="SourceAlpha" type="matrix" values="0 0 0 0 0 0 0 0 0 0 0 0 0 0 0 0 0 0 127 0" result="hardAlpha"/>
<feOffset dx="7.80992" dy="28.1157"/>
<feGaussianBlur stdDeviation="5.46694"/>
<feComposite in2="hardAlpha" operator="arithmetic" k2="-1" k3="1"/>
<feColorMatrix type="matrix" values="0 0 0 0 0.996583 0 0 0 0 1 0 0 0 0 0.829167 0 0 0 0.25 0"/>
<feBlend mode="normal" in2="shape" result="effect1_innerShadow"/>
</filter>
<linearGradient id="paint0_linear" x1="191.5" y1="21" x2="191.5" y2="226" gradientUnits="userSpaceOnUse">
<stop offset="0.0520833" stop-color="#8356CC"/>
<stop offset="1" stop-color="#71C7DA"/>
</linearGradient>
</defs>
</svg>
