<svg width="395" height="97" viewBox="0 0 395 97" fill="none" xmlns="http://www.w3.org/2000/svg">
<mask id="path-1-outside-1" maskUnits="userSpaceOnUse" x="-1" y="0" width="396" height="97" fill="black">
<rect fill="white" x="-1" width="396" height="97"/>
<path d="M63.7305 58.7061C63.7305 63.3887 62.9102 67.4902 61.2695 71.0107C59.6631 74.4971 57.4414 77.4023 54.6045 79.7266C51.8018 82.0508 48.5034 83.7939 44.7095 84.9561C40.9497 86.1182 36.8994 86.6992 32.5586 86.6992C30.8838 86.6992 29.0381 86.4771 27.0215 86.0327C25.0391 85.5884 23.0225 85.0415 20.9717 84.3921C18.9209 83.7085 16.9385 82.9907 15.0244 82.2388C13.1445 81.4526 11.4697 80.7178 10 80.0342L12.2559 58.9111C15.1611 60.6543 18.374 61.9873 21.8945 62.9102C25.4492 63.7988 28.9355 64.2432 32.3535 64.2432C33.0029 64.2432 33.7891 64.2261 34.7119 64.1919C35.6348 64.1235 36.5063 63.9697 37.3267 63.7305C38.1812 63.457 38.8989 63.064 39.48 62.5513C40.061 62.0386 40.3516 61.3037 40.3516 60.3467C40.3516 59.6973 40.1465 59.1504 39.7363 58.7061C39.3262 58.2275 38.7964 57.8516 38.147 57.5781C37.4976 57.2705 36.7627 57.0483 35.9424 56.9116C35.1221 56.7407 34.3188 56.6211 33.5327 56.5527C32.7466 56.4844 32.0117 56.4502 31.3281 56.4502C30.6445 56.4502 30.0977 56.4502 29.6875 56.4502C26.748 56.4502 24.0649 55.9375 21.6382 54.9121C19.2456 53.8867 17.1777 52.4683 15.4346 50.6567C13.7256 48.811 12.3926 46.6406 11.4355 44.1455C10.4785 41.6162 10 38.8818 10 35.9424C10 31.9092 10.8032 28.3032 12.4097 25.1245C14.0503 21.9116 16.2207 19.1943 18.9209 16.9727C21.6553 14.7168 24.7827 12.9907 28.3032 11.7944C31.8237 10.5981 35.4639 10 39.2236 10C40.8984 10 42.6245 10.0684 44.4019 10.2051C46.1792 10.3076 47.9395 10.5127 49.6826 10.8203C51.46 11.1279 53.186 11.521 54.8608 11.9995C56.5356 12.478 58.125 13.0762 59.6289 13.7939L57.6807 34.6094C55.3564 33.8232 52.9126 33.1738 50.3491 32.6611C47.8198 32.1143 45.3418 31.8408 42.915 31.8408C42.4707 31.8408 41.8896 31.8579 41.1719 31.8921C40.4883 31.8921 39.7534 31.9434 38.9673 32.0459C38.2153 32.1143 37.4463 32.2339 36.6602 32.4048C35.874 32.5757 35.1733 32.8149 34.5581 33.1226C33.9429 33.396 33.4473 33.772 33.0713 34.2505C32.6953 34.729 32.5244 35.293 32.5586 35.9424C32.5928 36.6943 32.8662 37.3096 33.3789 37.7881C33.9258 38.2324 34.6094 38.5913 35.4297 38.8647C36.2842 39.104 37.207 39.2749 38.1982 39.3774C39.2236 39.48 40.2319 39.5483 41.2231 39.5825C42.2144 39.5825 43.1372 39.5825 43.9917 39.5825C44.8462 39.5483 45.5469 39.5654 46.0938 39.6338C48.8281 39.8047 51.2891 40.3857 53.4766 41.377C55.6641 42.3682 57.5098 43.6841 59.0137 45.3247C60.5518 46.9653 61.7139 48.9307 62.5 51.2207C63.3203 53.4766 63.7305 55.9717 63.7305 58.7061Z"/>
<path d="M126.741 38.7109C126.741 42.0264 126.245 44.9658 125.254 47.5293C124.263 50.0928 122.896 52.3486 121.152 54.2969C119.443 56.2109 117.427 57.8345 115.103 59.1675C112.778 60.4663 110.283 61.543 107.617 62.3975C104.985 63.2178 102.251 63.833 99.4141 64.2432C96.5771 64.6191 93.7915 64.8242 91.0571 64.8584V86.6992H67.1655C67.1655 82.8027 67.1655 79.0088 67.1655 75.3174C67.1997 71.626 67.2168 67.9688 67.2168 64.3457C67.251 60.6885 67.2681 57.0142 67.2681 53.3228C67.3022 49.6313 67.3364 45.8203 67.3706 41.8896C67.439 37.7197 67.4561 33.5498 67.4219 29.3799C67.3877 25.21 67.4731 21.0059 67.6782 16.7676C72.0532 15.4688 76.4282 14.4946 80.8032 13.8452C85.1782 13.1958 89.6899 12.8711 94.3384 12.8711C96.9702 12.8711 99.6021 13.0933 102.234 13.5376C104.866 13.9478 107.378 14.6143 109.771 15.5371C112.197 16.46 114.436 17.6221 116.487 19.0234C118.572 20.3906 120.366 22.0312 121.87 23.9453C123.374 25.8594 124.553 28.0469 125.408 30.5078C126.296 32.9688 126.741 35.7031 126.741 38.7109ZM103.977 40.4541C103.977 38.2324 103.293 36.5063 101.926 35.2759C100.593 34.0112 98.8501 33.3789 96.6968 33.3789C95.979 33.3789 95.2271 33.4473 94.4409 33.584C93.689 33.6865 92.9712 33.8232 92.2876 33.9941L91.6724 48.9648C92.1509 49.0332 92.6123 49.0674 93.0566 49.0674C93.501 49.0674 93.9624 49.0674 94.4409 49.0674C95.6714 49.0674 96.8506 48.8623 97.9785 48.4521C99.1406 48.042 100.166 47.4609 101.055 46.709C101.943 45.9229 102.644 45.0171 103.157 43.9917C103.704 42.9321 103.977 41.7529 103.977 40.4541Z"/>
<path d="M193.032 46.709C193.032 49.8193 192.673 52.8271 191.956 55.7324C191.238 58.6035 190.195 61.3037 188.828 63.833C187.495 66.3623 185.854 68.6865 183.906 70.8057C181.992 72.8906 179.822 74.6851 177.395 76.189C175.002 77.6929 172.388 78.8721 169.551 79.7266C166.714 80.5469 163.706 80.957 160.527 80.957C157.451 80.957 154.512 80.564 151.709 79.7778C148.94 78.9917 146.343 77.8979 143.916 76.4966C141.489 75.061 139.285 73.3521 137.302 71.3696C135.354 69.353 133.679 67.1313 132.278 64.7046C130.911 62.2437 129.834 59.6118 129.048 56.8091C128.296 54.0063 127.92 51.084 127.92 48.042C127.92 45.0684 128.279 42.1631 128.997 39.3262C129.714 36.4551 130.74 33.7549 132.073 31.2256C133.44 28.6963 135.081 26.3721 136.995 24.2529C138.909 22.1338 141.045 20.3052 143.403 18.7671C145.796 17.229 148.376 16.0327 151.145 15.1782C153.914 14.3237 156.836 13.8965 159.912 13.8965C164.868 13.8965 169.38 14.6655 173.447 16.2036C177.549 17.7417 181.035 19.9463 183.906 22.8174C186.812 25.6543 189.05 29.1064 190.623 33.1738C192.229 37.207 193.032 41.7188 193.032 46.709ZM170.269 48.042C170.269 46.5723 170.046 45.1538 169.602 43.7866C169.192 42.3853 168.577 41.1548 167.756 40.0952C166.936 39.0015 165.911 38.1299 164.68 37.4805C163.484 36.7969 162.1 36.4551 160.527 36.4551C158.921 36.4551 157.485 36.7456 156.221 37.3267C154.956 37.9077 153.862 38.7109 152.939 39.7363C152.051 40.7275 151.367 41.9067 150.889 43.2739C150.41 44.6069 150.171 46.0254 150.171 47.5293C150.171 48.9648 150.376 50.4004 150.786 51.8359C151.196 53.2715 151.812 54.5703 152.632 55.7324C153.452 56.8945 154.46 57.8345 155.657 58.5522C156.887 59.27 158.306 59.6289 159.912 59.6289C161.519 59.6289 162.954 59.3213 164.219 58.7061C165.518 58.0566 166.611 57.2021 167.5 56.1426C168.389 55.0488 169.072 53.8013 169.551 52.3999C170.029 50.9985 170.269 49.5459 170.269 48.042Z"/>
<path d="M259.99 46.709C259.99 49.8193 259.631 52.8271 258.914 55.7324C258.196 58.6035 257.153 61.3037 255.786 63.833C254.453 66.3623 252.812 68.6865 250.864 70.8057C248.95 72.8906 246.78 74.6851 244.353 76.189C241.96 77.6929 239.346 78.8721 236.509 79.7266C233.672 80.5469 230.664 80.957 227.485 80.957C224.409 80.957 221.47 80.564 218.667 79.7778C215.898 78.9917 213.301 77.8979 210.874 76.4966C208.447 75.061 206.243 73.3521 204.26 71.3696C202.312 69.353 200.637 67.1313 199.236 64.7046C197.869 62.2437 196.792 59.6118 196.006 56.8091C195.254 54.0063 194.878 51.084 194.878 48.042C194.878 45.0684 195.237 42.1631 195.955 39.3262C196.672 36.4551 197.698 33.7549 199.031 31.2256C200.398 28.6963 202.039 26.3721 203.953 24.2529C205.867 22.1338 208.003 20.3052 210.361 18.7671C212.754 17.229 215.334 16.0327 218.103 15.1782C220.872 14.3237 223.794 13.8965 226.87 13.8965C231.826 13.8965 236.338 14.6655 240.405 16.2036C244.507 17.7417 247.993 19.9463 250.864 22.8174C253.77 25.6543 256.008 29.1064 257.581 33.1738C259.187 37.207 259.99 41.7188 259.99 46.709ZM237.227 48.042C237.227 46.5723 237.004 45.1538 236.56 43.7866C236.15 42.3853 235.535 41.1548 234.714 40.0952C233.894 39.0015 232.869 38.1299 231.638 37.4805C230.442 36.7969 229.058 36.4551 227.485 36.4551C225.879 36.4551 224.443 36.7456 223.179 37.3267C221.914 37.9077 220.82 38.7109 219.897 39.7363C219.009 40.7275 218.325 41.9067 217.847 43.2739C217.368 44.6069 217.129 46.0254 217.129 47.5293C217.129 48.9648 217.334 50.4004 217.744 51.8359C218.154 53.2715 218.77 54.5703 219.59 55.7324C220.41 56.8945 221.418 57.8345 222.615 58.5522C223.845 59.27 225.264 59.6289 226.87 59.6289C228.477 59.6289 229.912 59.3213 231.177 58.7061C232.476 58.0566 233.569 57.2021 234.458 56.1426C235.347 55.0488 236.03 53.8013 236.509 52.3999C236.987 50.9985 237.227 49.5459 237.227 48.042Z"/>
<path d="M326.589 60.0391C326.589 63.9014 326.538 67.7295 326.436 71.5234C326.367 75.2832 326.248 79.0771 326.077 82.9053L296.545 82.3926C297.571 76.3428 298.459 70.3101 299.211 64.2944C299.963 58.2446 300.339 52.1436 300.339 45.9912C300.339 45.5469 300.322 44.8291 300.288 43.8379C300.254 42.8467 300.186 41.7358 300.083 40.5054C299.98 39.2407 299.827 37.959 299.622 36.6602C299.451 35.3271 299.194 34.1138 298.853 33.02C298.545 31.9263 298.152 31.0376 297.673 30.354C297.229 29.6362 296.682 29.2773 296.033 29.2773C294.871 29.2773 293.879 29.6191 293.059 30.3027C292.273 30.9863 291.606 31.875 291.06 32.9688C290.547 34.0283 290.137 35.2246 289.829 36.5576C289.521 37.8906 289.282 39.2236 289.111 40.5566C288.975 41.8896 288.872 43.1543 288.804 44.3506C288.77 45.5127 288.752 46.4697 288.752 47.2217C288.582 53.2715 288.445 59.2871 288.342 65.2686C288.24 71.2158 288.103 77.2314 287.932 83.3154L261.785 84.4434C262.468 72.3779 263.118 60.3809 263.733 48.4521C264.382 36.5234 264.895 24.5264 265.271 12.4609L289.47 11.2305L289.265 19.4336C290.222 18.2715 291.248 17.1777 292.341 16.1523C293.469 15.127 294.666 14.2554 295.93 13.5376C297.195 12.7856 298.528 12.2046 299.929 11.7944C301.365 11.3501 302.869 11.1279 304.441 11.1279C307.346 11.1279 309.893 11.6064 312.08 12.5635C314.268 13.5205 316.147 14.8193 317.72 16.46C319.292 18.1006 320.608 20.0488 321.667 22.3047C322.727 24.5264 323.582 26.9019 324.231 29.4312C324.88 31.9604 325.376 34.6094 325.718 37.3779C326.06 40.1123 326.282 42.8125 326.384 45.4785C326.521 48.1445 326.589 50.7251 326.589 53.2202C326.589 55.7153 326.589 57.9883 326.589 60.0391Z"/>
<path d="M384.011 59.7314C384.011 64.4141 383.191 68.4644 381.55 71.8823C379.944 75.2661 377.722 78.0688 374.885 80.2905C372.083 82.478 368.784 84.1016 364.99 85.1611C361.23 86.1865 357.18 86.6992 352.839 86.6992C351.165 86.6992 349.319 86.4771 347.302 86.0327C345.32 85.5884 343.303 85.0415 341.252 84.3921C339.202 83.7085 337.219 82.9907 335.305 82.2388C333.425 81.4526 331.75 80.7178 330.281 80.0342L332.537 59.9365C335.442 61.6797 338.655 63.0127 342.175 63.9355C345.73 64.8242 349.216 65.2686 352.634 65.2686C353.284 65.2686 354.07 65.2515 354.993 65.2173C355.916 65.1489 356.787 64.9951 357.607 64.7559C358.462 64.4824 359.18 64.0894 359.761 63.5767C360.342 63.064 360.632 62.3291 360.632 61.3721C360.632 60.7227 360.427 60.1758 360.017 59.7314C359.607 59.2529 359.077 58.877 358.428 58.6035C357.778 58.2959 357.043 58.0737 356.223 57.937C355.403 57.7661 354.6 57.6465 353.813 57.5781C353.027 57.5098 352.292 57.4756 351.609 57.4756C350.925 57.4756 350.378 57.4756 349.968 57.4756C347.029 57.4756 344.346 57.0142 341.919 56.0913C339.526 55.1685 337.458 53.8696 335.715 52.1948C334.006 50.4858 332.673 48.4351 331.716 46.0425C330.759 43.6157 330.281 40.9326 330.281 37.9932C330.281 33.96 331.084 30.354 332.69 27.1753C334.331 23.9624 336.501 21.2451 339.202 19.0234C341.936 16.7676 345.063 15.0415 348.584 13.8452C352.104 12.6489 355.745 12.0508 359.504 12.0508C361.179 12.0508 362.905 12.1191 364.683 12.2559C366.46 12.3584 368.22 12.5635 369.963 12.8711C371.741 13.1787 373.467 13.5718 375.142 14.0503C376.816 14.5288 378.406 15.127 379.91 15.8447L377.961 36.6602C375.637 35.874 373.193 35.2246 370.63 34.7119C368.101 34.165 365.623 33.8916 363.196 33.8916C362.751 33.8916 362.17 33.9087 361.453 33.9429C360.769 33.9429 360.034 33.9941 359.248 34.0967C358.496 34.165 357.727 34.2847 356.941 34.4556C356.155 34.6265 355.454 34.8657 354.839 35.1733C354.224 35.4468 353.728 35.8228 353.352 36.3013C352.976 36.7798 352.805 37.3438 352.839 37.9932C352.874 38.7451 353.147 39.3262 353.66 39.7363C354.207 40.1465 354.89 40.4541 355.71 40.6592C356.565 40.8301 357.488 40.9155 358.479 40.9155C359.504 40.9155 360.513 40.8984 361.504 40.8643C362.495 40.7959 363.418 40.7446 364.272 40.7104C365.127 40.6421 365.828 40.625 366.375 40.6592C369.109 40.8301 371.57 41.4111 373.757 42.4023C375.945 43.3936 377.791 44.7095 379.294 46.3501C380.833 47.9907 381.995 49.9561 382.781 52.2461C383.601 54.502 384.011 56.9971 384.011 59.7314Z"/>
</mask>
<g filter="url(#filter0_i)">
<path d="M63.7305 58.7061C63.7305 63.3887 62.9102 67.4902 61.2695 71.0107C59.6631 74.4971 57.4414 77.4023 54.6045 79.7266C51.8018 82.0508 48.5034 83.7939 44.7095 84.9561C40.9497 86.1182 36.8994 86.6992 32.5586 86.6992C30.8838 86.6992 29.0381 86.4771 27.0215 86.0327C25.0391 85.5884 23.0225 85.0415 20.9717 84.3921C18.9209 83.7085 16.9385 82.9907 15.0244 82.2388C13.1445 81.4526 11.4697 80.7178 10 80.0342L12.2559 58.9111C15.1611 60.6543 18.374 61.9873 21.8945 62.9102C25.4492 63.7988 28.9355 64.2432 32.3535 64.2432C33.0029 64.2432 33.7891 64.2261 34.7119 64.1919C35.6348 64.1235 36.5063 63.9697 37.3267 63.7305C38.1812 63.457 38.8989 63.064 39.48 62.5513C40.061 62.0386 40.3516 61.3037 40.3516 60.3467C40.3516 59.6973 40.1465 59.1504 39.7363 58.7061C39.3262 58.2275 38.7964 57.8516 38.147 57.5781C37.4976 57.2705 36.7627 57.0483 35.9424 56.9116C35.1221 56.7407 34.3188 56.6211 33.5327 56.5527C32.7466 56.4844 32.0117 56.4502 31.3281 56.4502C30.6445 56.4502 30.0977 56.4502 29.6875 56.4502C26.748 56.4502 24.0649 55.9375 21.6382 54.9121C19.2456 53.8867 17.1777 52.4683 15.4346 50.6567C13.7256 48.811 12.3926 46.6406 11.4355 44.1455C10.4785 41.6162 10 38.8818 10 35.9424C10 31.9092 10.8032 28.3032 12.4097 25.1245C14.0503 21.9116 16.2207 19.1943 18.9209 16.9727C21.6553 14.7168 24.7827 12.9907 28.3032 11.7944C31.8237 10.5981 35.4639 10 39.2236 10C40.8984 10 42.6245 10.0684 44.4019 10.2051C46.1792 10.3076 47.9395 10.5127 49.6826 10.8203C51.46 11.1279 53.186 11.521 54.8608 11.9995C56.5356 12.478 58.125 13.0762 59.6289 13.7939L57.6807 34.6094C55.3564 33.8232 52.9126 33.1738 50.3491 32.6611C47.8198 32.1143 45.3418 31.8408 42.915 31.8408C42.4707 31.8408 41.8896 31.8579 41.1719 31.8921C40.4883 31.8921 39.7534 31.9434 38.9673 32.0459C38.2153 32.1143 37.4463 32.2339 36.6602 32.4048C35.874 32.5757 35.1733 32.8149 34.5581 33.1226C33.9429 33.396 33.4473 33.772 33.0713 34.2505C32.6953 34.729 32.5244 35.293 32.5586 35.9424C32.5928 36.6943 32.8662 37.3096 33.3789 37.7881C33.9258 38.2324 34.6094 38.5913 35.4297 38.8647C36.2842 39.104 37.207 39.2749 38.1982 39.3774C39.2236 39.48 40.2319 39.5483 41.2231 39.5825C42.2144 39.5825 43.1372 39.5825 43.9917 39.5825C44.8462 39.5483 45.5469 39.5654 46.0938 39.6338C48.8281 39.8047 51.2891 40.3857 53.4766 41.377C55.6641 42.3682 57.5098 43.6841 59.0137 45.3247C60.5518 46.9653 61.7139 48.9307 62.5 51.2207C63.3203 53.4766 63.7305 55.9717 63.7305 58.7061Z" fill="url(#paint0_linear)"/>
<path d="M126.741 38.7109C126.741 42.0264 126.245 44.9658 125.254 47.5293C124.263 50.0928 122.896 52.3486 121.152 54.2969C119.443 56.2109 117.427 57.8345 115.103 59.1675C112.778 60.4663 110.283 61.543 107.617 62.3975C104.985 63.2178 102.251 63.833 99.4141 64.2432C96.5771 64.6191 93.7915 64.8242 91.0571 64.8584V86.6992H67.1655C67.1655 82.8027 67.1655 79.0088 67.1655 75.3174C67.1997 71.626 67.2168 67.9688 67.2168 64.3457C67.251 60.6885 67.2681 57.0142 67.2681 53.3228C67.3022 49.6313 67.3364 45.8203 67.3706 41.8896C67.439 37.7197 67.4561 33.5498 67.4219 29.3799C67.3877 25.21 67.4731 21.0059 67.6782 16.7676C72.0532 15.4688 76.4282 14.4946 80.8032 13.8452C85.1782 13.1958 89.6899 12.8711 94.3384 12.8711C96.9702 12.8711 99.6021 13.0933 102.234 13.5376C104.866 13.9478 107.378 14.6143 109.771 15.5371C112.197 16.46 114.436 17.6221 116.487 19.0234C118.572 20.3906 120.366 22.0312 121.87 23.9453C123.374 25.8594 124.553 28.0469 125.408 30.5078C126.296 32.9688 126.741 35.7031 126.741 38.7109ZM103.977 40.4541C103.977 38.2324 103.293 36.5063 101.926 35.2759C100.593 34.0112 98.8501 33.3789 96.6968 33.3789C95.979 33.3789 95.2271 33.4473 94.4409 33.584C93.689 33.6865 92.9712 33.8232 92.2876 33.9941L91.6724 48.9648C92.1509 49.0332 92.6123 49.0674 93.0566 49.0674C93.501 49.0674 93.9624 49.0674 94.4409 49.0674C95.6714 49.0674 96.8506 48.8623 97.9785 48.4521C99.1406 48.042 100.166 47.4609 101.055 46.709C101.943 45.9229 102.644 45.0171 103.157 43.9917C103.704 42.9321 103.977 41.7529 103.977 40.4541Z" fill="url(#paint1_linear)"/>
<path d="M193.032 46.709C193.032 49.8193 192.673 52.8271 191.956 55.7324C191.238 58.6035 190.195 61.3037 188.828 63.833C187.495 66.3623 185.854 68.6865 183.906 70.8057C181.992 72.8906 179.822 74.6851 177.395 76.189C175.002 77.6929 172.388 78.8721 169.551 79.7266C166.714 80.5469 163.706 80.957 160.527 80.957C157.451 80.957 154.512 80.564 151.709 79.7778C148.94 78.9917 146.343 77.8979 143.916 76.4966C141.489 75.061 139.285 73.3521 137.302 71.3696C135.354 69.353 133.679 67.1313 132.278 64.7046C130.911 62.2437 129.834 59.6118 129.048 56.8091C128.296 54.0063 127.92 51.084 127.92 48.042C127.92 45.0684 128.279 42.1631 128.997 39.3262C129.714 36.4551 130.74 33.7549 132.073 31.2256C133.44 28.6963 135.081 26.3721 136.995 24.2529C138.909 22.1338 141.045 20.3052 143.403 18.7671C145.796 17.229 148.376 16.0327 151.145 15.1782C153.914 14.3237 156.836 13.8965 159.912 13.8965C164.868 13.8965 169.38 14.6655 173.447 16.2036C177.549 17.7417 181.035 19.9463 183.906 22.8174C186.812 25.6543 189.05 29.1064 190.623 33.1738C192.229 37.207 193.032 41.7188 193.032 46.709ZM170.269 48.042C170.269 46.5723 170.046 45.1538 169.602 43.7866C169.192 42.3853 168.577 41.1548 167.756 40.0952C166.936 39.0015 165.911 38.1299 164.68 37.4805C163.484 36.7969 162.1 36.4551 160.527 36.4551C158.921 36.4551 157.485 36.7456 156.221 37.3267C154.956 37.9077 153.862 38.7109 152.939 39.7363C152.051 40.7275 151.367 41.9067 150.889 43.2739C150.41 44.6069 150.171 46.0254 150.171 47.5293C150.171 48.9648 150.376 50.4004 150.786 51.8359C151.196 53.2715 151.812 54.5703 152.632 55.7324C153.452 56.8945 154.46 57.8345 155.657 58.5522C156.887 59.27 158.306 59.6289 159.912 59.6289C161.519 59.6289 162.954 59.3213 164.219 58.7061C165.518 58.0566 166.611 57.2021 167.5 56.1426C168.389 55.0488 169.072 53.8013 169.551 52.3999C170.029 50.9985 170.269 49.5459 170.269 48.042Z" fill="url(#paint2_linear)"/>
<path d="M259.99 46.709C259.99 49.8193 259.631 52.8271 258.914 55.7324C258.196 58.6035 257.153 61.3037 255.786 63.833C254.453 66.3623 252.812 68.6865 250.864 70.8057C248.95 72.8906 246.78 74.6851 244.353 76.189C241.96 77.6929 239.346 78.8721 236.509 79.7266C233.672 80.5469 230.664 80.957 227.485 80.957C224.409 80.957 221.47 80.564 218.667 79.7778C215.898 78.9917 213.301 77.8979 210.874 76.4966C208.447 75.061 206.243 73.3521 204.26 71.3696C202.312 69.353 200.637 67.1313 199.236 64.7046C197.869 62.2437 196.792 59.6118 196.006 56.8091C195.254 54.0063 194.878 51.084 194.878 48.042C194.878 45.0684 195.237 42.1631 195.955 39.3262C196.672 36.4551 197.698 33.7549 199.031 31.2256C200.398 28.6963 202.039 26.3721 203.953 24.2529C205.867 22.1338 208.003 20.3052 210.361 18.7671C212.754 17.229 215.334 16.0327 218.103 15.1782C220.872 14.3237 223.794 13.8965 226.87 13.8965C231.826 13.8965 236.338 14.6655 240.405 16.2036C244.507 17.7417 247.993 19.9463 250.864 22.8174C253.77 25.6543 256.008 29.1064 257.581 33.1738C259.187 37.207 259.99 41.7188 259.99 46.709ZM237.227 48.042C237.227 46.5723 237.004 45.1538 236.56 43.7866C236.15 42.3853 235.535 41.1548 234.714 40.0952C233.894 39.0015 232.869 38.1299 231.638 37.4805C230.442 36.7969 229.058 36.4551 227.485 36.4551C225.879 36.4551 224.443 36.7456 223.179 37.3267C221.914 37.9077 220.82 38.7109 219.897 39.7363C219.009 40.7275 218.325 41.9067 217.847 43.2739C217.368 44.6069 217.129 46.0254 217.129 47.5293C217.129 48.9648 217.334 50.4004 217.744 51.8359C218.154 53.2715 218.77 54.5703 219.59 55.7324C220.41 56.8945 221.418 57.8345 222.615 58.5522C223.845 59.27 225.264 59.6289 226.87 59.6289C228.477 59.6289 229.912 59.3213 231.177 58.7061C232.476 58.0566 233.569 57.2021 234.458 56.1426C235.347 55.0488 236.03 53.8013 236.509 52.3999C236.987 50.9985 237.227 49.5459 237.227 48.042Z" fill="url(#paint3_linear)"/>
<path d="M326.589 60.0391C326.589 63.9014 326.538 67.7295 326.436 71.5234C326.367 75.2832 326.248 79.0771 326.077 82.9053L296.545 82.3926C297.571 76.3428 298.459 70.3101 299.211 64.2944C299.963 58.2446 300.339 52.1436 300.339 45.9912C300.339 45.5469 300.322 44.8291 300.288 43.8379C300.254 42.8467 300.186 41.7358 300.083 40.5054C299.98 39.2407 299.827 37.959 299.622 36.6602C299.451 35.3271 299.194 34.1138 298.853 33.02C298.545 31.9263 298.152 31.0376 297.673 30.354C297.229 29.6362 296.682 29.2773 296.033 29.2773C294.871 29.2773 293.879 29.6191 293.059 30.3027C292.273 30.9863 291.606 31.875 291.06 32.9688C290.547 34.0283 290.137 35.2246 289.829 36.5576C289.521 37.8906 289.282 39.2236 289.111 40.5566C288.975 41.8896 288.872 43.1543 288.804 44.3506C288.77 45.5127 288.752 46.4697 288.752 47.2217C288.582 53.2715 288.445 59.2871 288.342 65.2686C288.24 71.2158 288.103 77.2314 287.932 83.3154L261.785 84.4434C262.468 72.3779 263.118 60.3809 263.733 48.4521C264.382 36.5234 264.895 24.5264 265.271 12.4609L289.47 11.2305L289.265 19.4336C290.222 18.2715 291.248 17.1777 292.341 16.1523C293.469 15.127 294.666 14.2554 295.93 13.5376C297.195 12.7856 298.528 12.2046 299.929 11.7944C301.365 11.3501 302.869 11.1279 304.441 11.1279C307.346 11.1279 309.893 11.6064 312.08 12.5635C314.268 13.5205 316.147 14.8193 317.72 16.46C319.292 18.1006 320.608 20.0488 321.667 22.3047C322.727 24.5264 323.582 26.9019 324.231 29.4312C324.88 31.9604 325.376 34.6094 325.718 37.3779C326.06 40.1123 326.282 42.8125 326.384 45.4785C326.521 48.1445 326.589 50.7251 326.589 53.2202C326.589 55.7153 326.589 57.9883 326.589 60.0391Z" fill="url(#paint4_linear)"/>
<path d="M384.011 59.7314C384.011 64.4141 383.191 68.4644 381.55 71.8823C379.944 75.2661 377.722 78.0688 374.885 80.2905C372.083 82.478 368.784 84.1016 364.99 85.1611C361.23 86.1865 357.18 86.6992 352.839 86.6992C351.165 86.6992 349.319 86.4771 347.302 86.0327C345.32 85.5884 343.303 85.0415 341.252 84.3921C339.202 83.7085 337.219 82.9907 335.305 82.2388C333.425 81.4526 331.75 80.7178 330.281 80.0342L332.537 59.9365C335.442 61.6797 338.655 63.0127 342.175 63.9355C345.73 64.8242 349.216 65.2686 352.634 65.2686C353.284 65.2686 354.07 65.2515 354.993 65.2173C355.916 65.1489 356.787 64.9951 357.607 64.7559C358.462 64.4824 359.18 64.0894 359.761 63.5767C360.342 63.064 360.632 62.3291 360.632 61.3721C360.632 60.7227 360.427 60.1758 360.017 59.7314C359.607 59.2529 359.077 58.877 358.428 58.6035C357.778 58.2959 357.043 58.0737 356.223 57.937C355.403 57.7661 354.6 57.6465 353.813 57.5781C353.027 57.5098 352.292 57.4756 351.609 57.4756C350.925 57.4756 350.378 57.4756 349.968 57.4756C347.029 57.4756 344.346 57.0142 341.919 56.0913C339.526 55.1685 337.458 53.8696 335.715 52.1948C334.006 50.4858 332.673 48.4351 331.716 46.0425C330.759 43.6157 330.281 40.9326 330.281 37.9932C330.281 33.96 331.084 30.354 332.69 27.1753C334.331 23.9624 336.501 21.2451 339.202 19.0234C341.936 16.7676 345.063 15.0415 348.584 13.8452C352.104 12.6489 355.745 12.0508 359.504 12.0508C361.179 12.0508 362.905 12.1191 364.683 12.2559C366.46 12.3584 368.22 12.5635 369.963 12.8711C371.741 13.1787 373.467 13.5718 375.142 14.0503C376.816 14.5288 378.406 15.127 379.91 15.8447L377.961 36.6602C375.637 35.874 373.193 35.2246 370.63 34.7119C368.101 34.165 365.623 33.8916 363.196 33.8916C362.751 33.8916 362.17 33.9087 361.453 33.9429C360.769 33.9429 360.034 33.9941 359.248 34.0967C358.496 34.165 357.727 34.2847 356.941 34.4556C356.155 34.6265 355.454 34.8657 354.839 35.1733C354.224 35.4468 353.728 35.8228 353.352 36.3013C352.976 36.7798 352.805 37.3438 352.839 37.9932C352.874 38.7451 353.147 39.3262 353.66 39.7363C354.207 40.1465 354.89 40.4541 355.71 40.6592C356.565 40.8301 357.488 40.9155 358.479 40.9155C359.504 40.9155 360.513 40.8984 361.504 40.8643C362.495 40.7959 363.418 40.7446 364.272 40.7104C365.127 40.6421 365.828 40.625 366.375 40.6592C369.109 40.8301 371.57 41.4111 373.757 42.4023C375.945 43.3936 377.791 44.7095 379.294 46.3501C380.833 47.9907 381.995 49.9561 382.781 52.2461C383.601 54.502 384.011 56.9971 384.011 59.7314Z" fill="url(#paint5_linear)"/>
</g>
<path d="M63.7305 58.7061C63.7305 63.3887 62.9102 67.4902 61.2695 71.0107C59.6631 74.4971 57.4414 77.4023 54.6045 79.7266C51.8018 82.0508 48.5034 83.7939 44.7095 84.9561C40.9497 86.1182 36.8994 86.6992 32.5586 86.6992C30.8838 86.6992 29.0381 86.4771 27.0215 86.0327C25.0391 85.5884 23.0225 85.0415 20.9717 84.3921C18.9209 83.7085 16.9385 82.9907 15.0244 82.2388C13.1445 81.4526 11.4697 80.7178 10 80.0342L12.2559 58.9111C15.1611 60.6543 18.374 61.9873 21.8945 62.9102C25.4492 63.7988 28.9355 64.2432 32.3535 64.2432C33.0029 64.2432 33.7891 64.2261 34.7119 64.1919C35.6348 64.1235 36.5063 63.9697 37.3267 63.7305C38.1812 63.457 38.8989 63.064 39.48 62.5513C40.061 62.0386 40.3516 61.3037 40.3516 60.3467C40.3516 59.6973 40.1465 59.1504 39.7363 58.7061C39.3262 58.2275 38.7964 57.8516 38.147 57.5781C37.4976 57.2705 36.7627 57.0483 35.9424 56.9116C35.1221 56.7407 34.3188 56.6211 33.5327 56.5527C32.7466 56.4844 32.0117 56.4502 31.3281 56.4502C30.6445 56.4502 30.0977 56.4502 29.6875 56.4502C26.748 56.4502 24.0649 55.9375 21.6382 54.9121C19.2456 53.8867 17.1777 52.4683 15.4346 50.6567C13.7256 48.811 12.3926 46.6406 11.4355 44.1455C10.4785 41.6162 10 38.8818 10 35.9424C10 31.9092 10.8032 28.3032 12.4097 25.1245C14.0503 21.9116 16.2207 19.1943 18.9209 16.9727C21.6553 14.7168 24.7827 12.9907 28.3032 11.7944C31.8237 10.5981 35.4639 10 39.2236 10C40.8984 10 42.6245 10.0684 44.4019 10.2051C46.1792 10.3076 47.9395 10.5127 49.6826 10.8203C51.46 11.1279 53.186 11.521 54.8608 11.9995C56.5356 12.478 58.125 13.0762 59.6289 13.7939L57.6807 34.6094C55.3564 33.8232 52.9126 33.1738 50.3491 32.6611C47.8198 32.1143 45.3418 31.8408 42.915 31.8408C42.4707 31.8408 41.8896 31.8579 41.1719 31.8921C40.4883 31.8921 39.7534 31.9434 38.9673 32.0459C38.2153 32.1143 37.4463 32.2339 36.6602 32.4048C35.874 32.5757 35.1733 32.8149 34.5581 33.1226C33.9429 33.396 33.4473 33.772 33.0713 34.2505C32.6953 34.729 32.5244 35.293 32.5586 35.9424C32.5928 36.6943 32.8662 37.3096 33.3789 37.7881C33.9258 38.2324 34.6094 38.5913 35.4297 38.8647C36.2842 39.104 37.207 39.2749 38.1982 39.3774C39.2236 39.48 40.2319 39.5483 41.2231 39.5825C42.2144 39.5825 43.1372 39.5825 43.9917 39.5825C44.8462 39.5483 45.5469 39.5654 46.0938 39.6338C48.8281 39.8047 51.2891 40.3857 53.4766 41.377C55.6641 42.3682 57.5098 43.6841 59.0137 45.3247C60.5518 46.9653 61.7139 48.9307 62.5 51.2207C63.3203 53.4766 63.7305 55.9717 63.7305 58.7061Z" stroke="white" stroke-width="20" stroke-linejoin="round" mask="url(#path-1-outside-1)"/>
<path d="M126.741 38.7109C126.741 42.0264 126.245 44.9658 125.254 47.5293C124.263 50.0928 122.896 52.3486 121.152 54.2969C119.443 56.2109 117.427 57.8345 115.103 59.1675C112.778 60.4663 110.283 61.543 107.617 62.3975C104.985 63.2178 102.251 63.833 99.4141 64.2432C96.5771 64.6191 93.7915 64.8242 91.0571 64.8584V86.6992H67.1655C67.1655 82.8027 67.1655 79.0088 67.1655 75.3174C67.1997 71.626 67.2168 67.9688 67.2168 64.3457C67.251 60.6885 67.2681 57.0142 67.2681 53.3228C67.3022 49.6313 67.3364 45.8203 67.3706 41.8896C67.439 37.7197 67.4561 33.5498 67.4219 29.3799C67.3877 25.21 67.4731 21.0059 67.6782 16.7676C72.0532 15.4688 76.4282 14.4946 80.8032 13.8452C85.1782 13.1958 89.6899 12.8711 94.3384 12.8711C96.9702 12.8711 99.6021 13.0933 102.234 13.5376C104.866 13.9478 107.378 14.6143 109.771 15.5371C112.197 16.46 114.436 17.6221 116.487 19.0234C118.572 20.3906 120.366 22.0312 121.87 23.9453C123.374 25.8594 124.553 28.0469 125.408 30.5078C126.296 32.9688 126.741 35.7031 126.741 38.7109ZM103.977 40.4541C103.977 38.2324 103.293 36.5063 101.926 35.2759C100.593 34.0112 98.8501 33.3789 96.6968 33.3789C95.979 33.3789 95.2271 33.4473 94.4409 33.584C93.689 33.6865 92.9712 33.8232 92.2876 33.9941L91.6724 48.9648C92.1509 49.0332 92.6123 49.0674 93.0566 49.0674C93.501 49.0674 93.9624 49.0674 94.4409 49.0674C95.6714 49.0674 96.8506 48.8623 97.9785 48.4521C99.1406 48.042 100.166 47.4609 101.055 46.709C101.943 45.9229 102.644 45.0171 103.157 43.9917C103.704 42.9321 103.977 41.7529 103.977 40.4541Z" stroke="white" stroke-width="20" stroke-linejoin="round" mask="url(#path-1-outside-1)"/>
<path d="M193.032 46.709C193.032 49.8193 192.673 52.8271 191.956 55.7324C191.238 58.6035 190.195 61.3037 188.828 63.833C187.495 66.3623 185.854 68.6865 183.906 70.8057C181.992 72.8906 179.822 74.6851 177.395 76.189C175.002 77.6929 172.388 78.8721 169.551 79.7266C166.714 80.5469 163.706 80.957 160.527 80.957C157.451 80.957 154.512 80.564 151.709 79.7778C148.94 78.9917 146.343 77.8979 143.916 76.4966C141.489 75.061 139.285 73.3521 137.302 71.3696C135.354 69.353 133.679 67.1313 132.278 64.7046C130.911 62.2437 129.834 59.6118 129.048 56.8091C128.296 54.0063 127.92 51.084 127.92 48.042C127.92 45.0684 128.279 42.1631 128.997 39.3262C129.714 36.4551 130.74 33.7549 132.073 31.2256C133.44 28.6963 135.081 26.3721 136.995 24.2529C138.909 22.1338 141.045 20.3052 143.403 18.7671C145.796 17.229 148.376 16.0327 151.145 15.1782C153.914 14.3237 156.836 13.8965 159.912 13.8965C164.868 13.8965 169.38 14.6655 173.447 16.2036C177.549 17.7417 181.035 19.9463 183.906 22.8174C186.812 25.6543 189.05 29.1064 190.623 33.1738C192.229 37.207 193.032 41.7188 193.032 46.709ZM170.269 48.042C170.269 46.5723 170.046 45.1538 169.602 43.7866C169.192 42.3853 168.577 41.1548 167.756 40.0952C166.936 39.0015 165.911 38.1299 164.68 37.4805C163.484 36.7969 162.1 36.4551 160.527 36.4551C158.921 36.4551 157.485 36.7456 156.221 37.3267C154.956 37.9077 153.862 38.7109 152.939 39.7363C152.051 40.7275 151.367 41.9067 150.889 43.2739C150.41 44.6069 150.171 46.0254 150.171 47.5293C150.171 48.9648 150.376 50.4004 150.786 51.8359C151.196 53.2715 151.812 54.5703 152.632 55.7324C153.452 56.8945 154.46 57.8345 155.657 58.5522C156.887 59.27 158.306 59.6289 159.912 59.6289C161.519 59.6289 162.954 59.3213 164.219 58.7061C165.518 58.0566 166.611 57.2021 167.5 56.1426C168.389 55.0488 169.072 53.8013 169.551 52.3999C170.029 50.9985 170.269 49.5459 170.269 48.042Z" stroke="white" stroke-width="20" stroke-linejoin="round" mask="url(#path-1-outside-1)"/>
<path d="M259.99 46.709C259.99 49.8193 259.631 52.8271 258.914 55.7324C258.196 58.6035 257.153 61.3037 255.786 63.833C254.453 66.3623 252.812 68.6865 250.864 70.8057C248.95 72.8906 246.78 74.6851 244.353 76.189C241.96 77.6929 239.346 78.8721 236.509 79.7266C233.672 80.5469 230.664 80.957 227.485 80.957C224.409 80.957 221.47 80.564 218.667 79.7778C215.898 78.9917 213.301 77.8979 210.874 76.4966C208.447 75.061 206.243 73.3521 204.26 71.3696C202.312 69.353 200.637 67.1313 199.236 64.7046C197.869 62.2437 196.792 59.6118 196.006 56.8091C195.254 54.0063 194.878 51.084 194.878 48.042C194.878 45.0684 195.237 42.1631 195.955 39.3262C196.672 36.4551 197.698 33.7549 199.031 31.2256C200.398 28.6963 202.039 26.3721 203.953 24.2529C205.867 22.1338 208.003 20.3052 210.361 18.7671C212.754 17.229 215.334 16.0327 218.103 15.1782C220.872 14.3237 223.794 13.8965 226.87 13.8965C231.826 13.8965 236.338 14.6655 240.405 16.2036C244.507 17.7417 247.993 19.9463 250.864 22.8174C253.77 25.6543 256.008 29.1064 257.581 33.1738C259.187 37.207 259.99 41.7188 259.99 46.709ZM237.227 48.042C237.227 46.5723 237.004 45.1538 236.56 43.7866C236.15 42.3853 235.535 41.1548 234.714 40.0952C233.894 39.0015 232.869 38.1299 231.638 37.4805C230.442 36.7969 229.058 36.4551 227.485 36.4551C225.879 36.4551 224.443 36.7456 223.179 37.3267C221.914 37.9077 220.82 38.7109 219.897 39.7363C219.009 40.7275 218.325 41.9067 217.847 43.2739C217.368 44.6069 217.129 46.0254 217.129 47.5293C217.129 48.9648 217.334 50.4004 217.744 51.8359C218.154 53.2715 218.77 54.5703 219.59 55.7324C220.41 56.8945 221.418 57.8345 222.615 58.5522C223.845 59.27 225.264 59.6289 226.87 59.6289C228.477 59.6289 229.912 59.3213 231.177 58.7061C232.476 58.0566 233.569 57.2021 234.458 56.1426C235.347 55.0488 236.03 53.8013 236.509 52.3999C236.987 50.9985 237.227 49.5459 237.227 48.042Z" stroke="white" stroke-width="20" stroke-linejoin="round" mask="url(#path-1-outside-1)"/>
<path d="M326.589 60.0391C326.589 63.9014 326.538 67.7295 326.436 71.5234C326.367 75.2832 326.248 79.0771 326.077 82.9053L296.545 82.3926C297.571 76.3428 298.459 70.3101 299.211 64.2944C299.963 58.2446 300.339 52.1436 300.339 45.9912C300.339 45.5469 300.322 44.8291 300.288 43.8379C300.254 42.8467 300.186 41.7358 300.083 40.5054C299.98 39.2407 299.827 37.959 299.622 36.6602C299.451 35.3271 299.194 34.1138 298.853 33.02C298.545 31.9263 298.152 31.0376 297.673 30.354C297.229 29.6362 296.682 29.2773 296.033 29.2773C294.871 29.2773 293.879 29.6191 293.059 30.3027C292.273 30.9863 291.606 31.875 291.06 32.9688C290.547 34.0283 290.137 35.2246 289.829 36.5576C289.521 37.8906 289.282 39.2236 289.111 40.5566C288.975 41.8896 288.872 43.1543 288.804 44.3506C288.77 45.5127 288.752 46.4697 288.752 47.2217C288.582 53.2715 288.445 59.2871 288.342 65.2686C288.24 71.2158 288.103 77.2314 287.932 83.3154L261.785 84.4434C262.468 72.3779 263.118 60.3809 263.733 48.4521C264.382 36.5234 264.895 24.5264 265.271 12.4609L289.47 11.2305L289.265 19.4336C290.222 18.2715 291.248 17.1777 292.341 16.1523C293.469 15.127 294.666 14.2554 295.93 13.5376C297.195 12.7856 298.528 12.2046 299.929 11.7944C301.365 11.3501 302.869 11.1279 304.441 11.1279C307.346 11.1279 309.893 11.6064 312.08 12.5635C314.268 13.5205 316.147 14.8193 317.72 16.46C319.292 18.1006 320.608 20.0488 321.667 22.3047C322.727 24.5264 323.582 26.9019 324.231 29.4312C324.88 31.9604 325.376 34.6094 325.718 37.3779C326.06 40.1123 326.282 42.8125 326.384 45.4785C326.521 48.1445 326.589 50.7251 326.589 53.2202C326.589 55.7153 326.589 57.9883 326.589 60.0391Z" stroke="white" stroke-width="20" stroke-linejoin="round" mask="url(#path-1-outside-1)"/>
<path d="M384.011 59.7314C384.011 64.4141 383.191 68.4644 381.55 71.8823C379.944 75.2661 377.722 78.0688 374.885 80.2905C372.083 82.478 368.784 84.1016 364.99 85.1611C361.23 86.1865 357.18 86.6992 352.839 86.6992C351.165 86.6992 349.319 86.4771 347.302 86.0327C345.32 85.5884 343.303 85.0415 341.252 84.3921C339.202 83.7085 337.219 82.9907 335.305 82.2388C333.425 81.4526 331.75 80.7178 330.281 80.0342L332.537 59.9365C335.442 61.6797 338.655 63.0127 342.175 63.9355C345.73 64.8242 349.216 65.2686 352.634 65.2686C353.284 65.2686 354.07 65.2515 354.993 65.2173C355.916 65.1489 356.787 64.9951 357.607 64.7559C358.462 64.4824 359.18 64.0894 359.761 63.5767C360.342 63.064 360.632 62.3291 360.632 61.3721C360.632 60.7227 360.427 60.1758 360.017 59.7314C359.607 59.2529 359.077 58.877 358.428 58.6035C357.778 58.2959 357.043 58.0737 356.223 57.937C355.403 57.7661 354.6 57.6465 353.813 57.5781C353.027 57.5098 352.292 57.4756 351.609 57.4756C350.925 57.4756 350.378 57.4756 349.968 57.4756C347.029 57.4756 344.346 57.0142 341.919 56.0913C339.526 55.1685 337.458 53.8696 335.715 52.1948C334.006 50.4858 332.673 48.4351 331.716 46.0425C330.759 43.6157 330.281 40.9326 330.281 37.9932C330.281 33.96 331.084 30.354 332.69 27.1753C334.331 23.9624 336.501 21.2451 339.202 19.0234C341.936 16.7676 345.063 15.0415 348.584 13.8452C352.104 12.6489 355.745 12.0508 359.504 12.0508C361.179 12.0508 362.905 12.1191 364.683 12.2559C366.46 12.3584 368.22 12.5635 369.963 12.8711C371.741 13.1787 373.467 13.5718 375.142 14.0503C376.816 14.5288 378.406 15.127 379.91 15.8447L377.961 36.6602C375.637 35.874 373.193 35.2246 370.63 34.7119C368.101 34.165 365.623 33.8916 363.196 33.8916C362.751 33.8916 362.17 33.9087 361.453 33.9429C360.769 33.9429 360.034 33.9941 359.248 34.0967C358.496 34.165 357.727 34.2847 356.941 34.4556C356.155 34.6265 355.454 34.8657 354.839 35.1733C354.224 35.4468 353.728 35.8228 353.352 36.3013C352.976 36.7798 352.805 37.3438 352.839 37.9932C352.874 38.7451 353.147 39.3262 353.66 39.7363C354.207 40.1465 354.89 40.4541 355.71 40.6592C356.565 40.8301 357.488 40.9155 358.479 40.9155C359.504 40.9155 360.513 40.8984 361.504 40.8643C362.495 40.7959 363.418 40.7446 364.272 40.7104C365.127 40.6421 365.828 40.625 366.375 40.6592C369.109 40.8301 371.57 41.4111 373.757 42.4023C375.945 43.3936 377.791 44.7095 379.294 46.3501C380.833 47.9907 381.995 49.9561 382.781 52.2461C383.601 54.502 384.011 56.9971 384.011 59.7314Z" stroke="white" stroke-width="20" stroke-linejoin="round" mask="url(#path-1-outside-1)"/>
<defs>
<filter id="filter0_i" x="-0.000305176" y="0" width="399.012" height="103.699" filterUnits="userSpaceOnUse" color-interpolation-filters="sRGB">
<feFlood flood-opacity="0" result="BackgroundImageFix"/>
<feBlend mode="normal" in="SourceGraphic" in2="BackgroundImageFix" result="shape"/>
<feColorMatrix in="SourceAlpha" type="matrix" values="0 0 0 0 0 0 0 0 0 0 0 0 0 0 0 0 0 0 127 0" result="hardAlpha"/>
<feOffset dx="5" dy="18"/>
<feGaussianBlur stdDeviation="3.5"/>
<feComposite in2="hardAlpha" operator="arithmetic" k2="-1" k3="1"/>
<feColorMatrix type="matrix" values="0 0 0 0 0.996583 0 0 0 0 1 0 0 0 0 0.829167 0 0 0 0.25 0"/>
<feBlend mode="normal" in2="shape" result="effect1_innerShadow"/>
</filter>
<linearGradient id="paint0_linear" x1="197.006" y1="10" x2="197.006" y2="86.6992" gradientUnits="userSpaceOnUse">
<stop offset="0.0520833" stop-color="#8356CC"/>
<stop offset="1" stop-color="#71C7DA"/>
</linearGradient>
<linearGradient id="paint1_linear" x1="197.006" y1="10" x2="197.006" y2="86.6992" gradientUnits="userSpaceOnUse">
<stop offset="0.0520833" stop-color="#8356CC"/>
<stop offset="1" stop-color="#71C7DA"/>
</linearGradient>
<linearGradient id="paint2_linear" x1="197.006" y1="10" x2="197.006" y2="86.6992" gradientUnits="userSpaceOnUse">
<stop offset="0.0520833" stop-color="#8356CC"/>
<stop offset="1" stop-color="#71C7DA"/>
</linearGradient>
<linearGradient id="paint3_linear" x1="197.006" y1="10" x2="197.006" y2="86.6992" gradientUnits="userSpaceOnUse">
<stop offset="0.0520833" stop-color="#8356CC"/>
<stop offset="1" stop-color="#71C7DA"/>
</linearGradient>
<linearGradient id="paint4_linear" x1="197.006" y1="10" x2="197.006" y2="86.6992" gradientUnits="userSpaceOnUse">
<stop offset="0.0520833" stop-color="#8356CC"/>
<stop offset="1" stop-color="#71C7DA"/>
</linearGradient>
<linearGradient id="paint5_linear" x1="197.006" y1="10" x2="197.006" y2="86.6992" gradientUnits="userSpaceOnUse">
<stop offset="0.0520833" stop-color="#8356CC"/>
<stop offset="1" stop-color="#71C7DA"/>
</linearGradient>
</defs>
</svg>
