<svg width="128" height="128" viewBox="0 0 128 128" fill="none" xmlns="http://www.w3.org/2000/svg">
<g clip-path="url(#clip0)">
<path d="M64 0C99.3462 0 128 28.6538 128 64H116C116 35.2812 92.7188 12 64 12C35.2812 12 12 35.2812 12 64H0C0 28.6538 28.6538 0 64 0Z" fill="#494949"/>
<path d="M64 116C92.7188 116 116 92.7188 116 64C116 35.2812 92.7188 12 64 12C35.2812 12 12 35.2812 12 64C12 92.7188 35.2812 116 64 116Z" fill="#868686"/>
<path d="M64 128C28.6538 128 -3.09006e-06 99.3462 0 64L12 64C12 92.7188 35.2812 116 64 116C92.7188 116 116 92.7188 116 64L128 64C128 99.3462 99.3462 128 64 128Z" fill="#494949"/>
<path d="M56.0205 72.4931C56.0205 69.7309 56.5939 67.4389 57.7406 65.6171C58.8874 63.7365 60.5256 61.7089 62.6553 59.5344C64.0205 58.124 65.0034 56.978 65.6041 56.0964C66.2594 55.2149 66.587 54.2746 66.587 53.2755C66.587 51.9826 66.0683 50.9835 65.0307 50.2782C63.9932 49.5142 62.6826 49.1322 61.099 49.1322C59.3515 49.1322 57.7133 49.6905 56.1843 50.8072C54.6553 51.865 53.4539 53.3049 52.5802 55.1267L38 47.281C40.1843 42.8145 43.4061 39.3177 47.6655 36.7906C51.9795 34.2635 57.2765 33 63.5563 33C70.2184 33 75.6246 34.4692 79.7747 37.4077C83.9249 40.3462 86 44.4894 86 49.8375C86 52.3058 85.5904 54.4803 84.7713 56.3609C84.0068 58.1827 83.0785 59.7401 81.9864 61.0331C80.8942 62.2672 79.5017 63.6483 77.8089 65.1763C76.0614 66.8219 74.8055 68.1442 74.041 69.1433C73.2765 70.1423 72.8942 71.259 72.8942 72.4931H56.0205ZM64.4573 97C61.2901 97 58.6962 95.9715 56.6758 93.9146C54.6553 91.8577 53.6451 89.36 53.6451 86.4215C53.6451 83.4242 54.6553 80.9559 56.6758 79.0165C58.6962 77.0184 61.2901 76.0193 64.4573 76.0193C67.6246 76.0193 70.2184 77.0184 72.2389 79.0165C74.2594 80.9559 75.2696 83.4242 75.2696 86.4215C75.2696 89.36 74.2594 91.8577 72.2389 93.9146C70.2184 95.9715 67.6246 97 64.4573 97Z" fill="#C9C9C9" fill-opacity="0.75"/>
<path d="M52.5205 72.4931C52.5205 74.0602 53.5504 75.3867 54.9703 75.8328C54.7189 76.0476 54.4732 76.2732 54.2332 76.5096C51.4859 79.1563 50.1451 82.5545 50.1451 86.4215C50.1451 90.2577 51.5019 93.6419 54.1789 96.3673C56.9256 99.1635 60.4529 100.5 64.4573 100.5C68.4617 100.5 71.9891 99.1635 74.7358 96.3673C77.4128 93.6419 78.7696 90.2577 78.7696 86.4215C78.7696 82.5545 77.4288 79.1563 74.6814 76.5096C74.4415 76.2732 74.1957 76.0476 73.9444 75.8328C75.3643 75.3868 76.3942 74.0602 76.3942 72.4931C76.3942 72.0437 76.5135 71.6714 76.8205 71.2702C77.406 70.5051 78.4876 69.3462 80.182 67.7492C81.9259 66.1737 83.4092 64.7065 84.6074 63.3525C84.6252 63.3324 84.6428 63.3121 84.6601 63.2916C86.0118 61.6915 87.1117 59.8238 87.9899 57.7362C89.0292 55.3403 89.5 52.682 89.5 49.8375C89.5 43.4233 86.9293 38.1849 81.7972 34.5512C76.8966 31.0814 70.72 29.5 63.5563 29.5C56.8119 29.5 50.8682 30.8583 45.8965 33.7706L45.8796 33.7805C41.0313 36.6571 37.3385 40.6668 34.8558 45.7434C34.0299 47.4324 34.6858 49.4722 36.3415 50.3631L50.9217 58.2088C51.764 58.6621 52.7551 58.7508 53.6645 58.4545C54.5739 58.1582 55.3225 57.5026 55.7361 56.6402C56.3703 55.3178 57.1896 54.3676 58.1756 53.6854C58.2001 53.6685 58.2244 53.6512 58.2485 53.6337C59.2311 52.9161 60.1565 52.6322 61.099 52.6322C62.11 52.6322 62.6458 52.8686 62.9554 53.0966C62.9908 53.1227 63.0268 53.1481 63.0632 53.1729C63.0707 53.178 63.0775 53.1827 63.0836 53.1871C63.0855 53.2093 63.087 53.2385 63.087 53.2755C63.087 53.4472 63.0488 53.6672 62.7951 54.0084C62.7665 54.0469 62.7387 54.0859 62.7117 54.1256C62.2811 54.7575 61.4644 55.7318 60.1474 57.093C57.9073 59.3811 56.0885 61.6084 54.7648 63.7745C53.1897 66.288 52.5205 69.265 52.5205 72.4931Z" stroke="white" stroke-opacity="0.8" stroke-width="7" stroke-linejoin="round"/>
</g>
<defs>
<clipPath id="clip0">
<rect width="128" height="128" fill="white"/>
</clipPath>
</defs>
</svg>
