<svg width="128" height="128" viewBox="0 0 128 128" fill="none" xmlns="http://www.w3.org/2000/svg">
<g clip-path="url(#clip0)">
<path d="M64 0C99.3462 0 128 28.6538 128 64H116C116 35.2812 92.7188 12 64 12C35.2812 12 12 35.2812 12 64H0C0 28.6538 28.6538 0 64 0Z" fill="#204250"/>
<path d="M64 116C92.7188 116 116 92.7188 116 64C116 35.2812 92.7188 12 64 12C35.2812 12 12 35.2812 12 64C12 92.7188 35.2812 116 64 116Z" fill="#326E86"/>
<g filter="url(#filter0_ii)">
<path d="M64 55C77.8071 55 89 43.8071 89 30C89 16.1929 77.8071 5 64 5C50.1929 5 39 16.1929 39 30C39 43.8071 50.1929 55 64 55Z" fill="#6FD1F8"/>
</g>
<path d="M84 30C84 41.0457 75.0457 50 64 50C52.9543 50 44 41.0457 44 30C44 18.9543 52.9543 10 64 10C75.0457 10 84 18.9543 84 30Z" stroke="white" stroke-opacity="0.7" stroke-width="10" stroke-linecap="round" stroke-linejoin="round"/>
<g filter="url(#filter1_ii)">
<path d="M5.31787 89.5828C22.291 75.8068 42.143 67 64 67C85.9335 67 105.848 74.3904 122.86 89.1712C113.083 112.004 90.4097 128 64 128C37.7493 128 15.1899 112.196 5.31787 89.5828Z" fill="#6FD1F8"/>
</g>
<path d="M64 123C41.1713 123 21.361 110.034 11.5496 91.047C27.1278 79.2327 44.8287 72 64 72C83.4984 72 101.255 78.1543 116.707 90.5455C106.987 109.805 87.0294 123 64 123Z" stroke="white" stroke-opacity="0.7" stroke-width="10" stroke-linecap="round" stroke-linejoin="round"/>
<path d="M64 128C28.6538 128 -3.09006e-06 99.3462 0 64L12 64C12 92.7188 35.2812 116 64 116C92.7188 116 116 92.7188 116 64L128 64C128 99.3462 99.3462 128 64 128Z" fill="#204250"/>
</g>
<defs>
<filter id="filter0_ii" x="35" y="3" width="58" height="54" filterUnits="userSpaceOnUse" color-interpolation-filters="sRGB">
<feFlood flood-opacity="0" result="BackgroundImageFix"/>
<feBlend mode="normal" in="SourceGraphic" in2="BackgroundImageFix" result="shape"/>
<feColorMatrix in="SourceAlpha" type="matrix" values="0 0 0 0 0 0 0 0 0 0 0 0 0 0 0 0 0 0 127 0" result="hardAlpha"/>
<feOffset dx="10" dy="2"/>
<feGaussianBlur stdDeviation="2"/>
<feComposite in2="hardAlpha" operator="arithmetic" k2="-1" k3="1"/>
<feColorMatrix type="matrix" values="0 0 0 0 1 0 0 0 0 1 0 0 0 0 1 0 0 0 0.25 0"/>
<feBlend mode="normal" in2="shape" result="effect1_innerShadow"/>
<feColorMatrix in="SourceAlpha" type="matrix" values="0 0 0 0 0 0 0 0 0 0 0 0 0 0 0 0 0 0 127 0" result="hardAlpha"/>
<feOffset dx="-10" dy="-2"/>
<feGaussianBlur stdDeviation="2"/>
<feComposite in2="hardAlpha" operator="arithmetic" k2="-1" k3="1"/>
<feColorMatrix type="matrix" values="0 0 0 0 0 0 0 0 0 0 0 0 0 0 0 0 0 0 0.1 0"/>
<feBlend mode="normal" in2="effect1_innerShadow" result="effect2_innerShadow"/>
</filter>
<filter id="filter1_ii" x="1.31787" y="67" width="125.542" height="64" filterUnits="userSpaceOnUse" color-interpolation-filters="sRGB">
<feFlood flood-opacity="0" result="BackgroundImageFix"/>
<feBlend mode="normal" in="SourceGraphic" in2="BackgroundImageFix" result="shape"/>
<feColorMatrix in="SourceAlpha" type="matrix" values="0 0 0 0 0 0 0 0 0 0 0 0 0 0 0 0 0 0 127 0" result="hardAlpha"/>
<feOffset dx="13" dy="2"/>
<feGaussianBlur stdDeviation="2"/>
<feComposite in2="hardAlpha" operator="arithmetic" k2="-1" k3="1"/>
<feColorMatrix type="matrix" values="0 0 0 0 1 0 0 0 0 1 0 0 0 0 1 0 0 0 0.25 0"/>
<feBlend mode="normal" in2="shape" result="effect1_innerShadow"/>
<feColorMatrix in="SourceAlpha" type="matrix" values="0 0 0 0 0 0 0 0 0 0 0 0 0 0 0 0 0 0 127 0" result="hardAlpha"/>
<feOffset dx="-14" dy="3"/>
<feGaussianBlur stdDeviation="2"/>
<feComposite in2="hardAlpha" operator="arithmetic" k2="-1" k3="1"/>
<feColorMatrix type="matrix" values="0 0 0 0 0 0 0 0 0 0 0 0 0 0 0 0 0 0 0.15 0"/>
<feBlend mode="normal" in2="effect1_innerShadow" result="effect2_innerShadow"/>
</filter>
<clipPath id="clip0">
<rect width="128" height="128" fill="white"/>
</clipPath>
</defs>
</svg>
